<?xml version="1.0" standalone="no"?>
<!DOCTYPE svg PUBLIC "-//W3C//DTD SVG 20010904//EN"
 "http://www.w3.org/TR/2001/REC-SVG-20010904/DTD/svg10.dtd">
<svg version="1.0" xmlns="http://www.w3.org/2000/svg"
 width="800.000000pt" height="800.000000pt" viewBox="0 0 800.000000 800.000000"
 preserveAspectRatio="xMidYMid meet">

<g transform="translate(0.000000,800.000000) scale(0.100000,-0.100000)"
fill="#000000" stroke="none">
<path d="M4195 7940 c-45 -14 -101 -65 -125 -114 -42 -87 -126 -429 -146 -596
-4 -31 -14 -64 -25 -75 -45 -50 -63 -160 -38 -236 24 -70 93 -118 143 -99 20
7 21 3 31 -139 l10 -146 29 48 c15 26 35 69 43 95 19 62 19 201 -1 282 -9 36
-16 74 -16 85 0 16 4 15 20 -10 36 -57 50 -140 50 -297 0 -158 -11 -210 -79
-374 l-28 -70 19 -149 c34 -277 165 -1053 167 -993 1 14 -6 86 -14 160 -35
316 -65 732 -65 903 0 223 26 412 73 526 13 32 16 18 65 -281 133 -810 162
-1087 168 -1625 5 -360 -12 -884 -27 -900 -3 -3 -25 2 -48 10 -89 31 -215 48
-363 48 -128 0 -148 2 -148 16 0 9 -7 259 -15 556 -36 1321 -43 2698 -15 2979
6 60 9 110 7 112 -4 4 -79 -100 -109 -154 -36 -63 -48 -141 -55 -357 -6 -198
4 -384 42 -735 39 -350 95 -1046 101 -1245 5 -148 -29 -1184 -39 -1190 -1 -1
-24 -10 -52 -19 -27 -10 -102 -47 -166 -83 -179 -98 -205 -107 -334 -107 -60
-1 -121 2 -135 6 l-25 7 -54 538 c-29 296 -56 555 -60 576 -4 26 -23 -104 -59
-415 -70 -590 -74 -618 -81 -618 -3 0 -71 36 -151 80 -80 44 -181 92 -225 106
-163 52 -537 54 -699 3 -58 -17 -79 -30 -127 -78 -46 -46 -61 -70 -75 -116
-24 -86 -15 -169 29 -258 54 -108 254 -350 362 -435 l39 -32 -20 -27 c-35 -47
-89 -70 -208 -88 -333 -50 -598 -159 -801 -330 -33 -28 -83 -65 -111 -83 -172
-109 -205 -368 -73 -573 23 -35 85 -109 139 -164 109 -112 130 -146 130 -205
0 -78 -64 -132 -210 -177 -146 -44 -210 -87 -253 -168 -29 -56 -29 -162 0
-227 59 -131 122 -173 333 -223 103 -25 145 -51 269 -168 208 -197 297 -237
546 -245 127 -4 179 0 342 23 114 16 206 25 227 21 54 -10 92 -49 143 -149
120 -233 283 -297 758 -297 128 0 216 5 268 15 43 8 112 15 152 15 155 0 460
54 610 107 160 57 267 138 321 243 22 44 28 72 32 142 4 75 1 93 -18 132 -12
25 -40 61 -62 80 -95 81 -230 94 -482 46 -257 -49 -366 -42 -469 29 -25 17
-87 83 -137 146 -77 97 -162 175 -190 175 -3 0 1 56 11 124 9 69 24 196 34
283 l17 158 -51 266 c-58 300 -88 493 -98 623 l-6 89 64 -7 c97 -10 326 9 389
33 68 26 124 65 150 105 l20 31 0 -35 c0 -170 -23 -845 -35 -1013 -8 -117 -19
-322 -25 -457 -5 -135 -12 -271 -14 -304 l-4 -59 66 5 c55 4 203 45 218 61 3
2 -7 404 -21 893 -14 489 -26 979 -27 1089 l-3 200 49 -2 c49 -2 76 -13 243
-103 74 -39 146 -50 190 -27 l30 16 6 -652 c8 -848 28 -1442 47 -1391 9 23 36
255 50 429 5 66 14 473 20 905 l11 785 22 14 c12 8 45 38 73 66 138 139 122
349 -37 505 l-59 58 0 429 c0 1084 -35 2297 -91 3197 -11 180 -18 330 -15 333
6 7 53 -75 71 -127 32 -89 46 -189 52 -382 6 -187 5 -197 -15 -222 -27 -35
-46 -118 -38 -168 7 -45 29 -93 56 -123 15 -16 20 -52 29 -195 26 -401 103
-1460 121 -1650 l18 -205 -6 250 c-4 138 -7 401 -6 585 1 444 18 588 113 945
25 94 32 141 33 215 0 99 -2 110 -62 255 -20 47 -45 141 -62 230 -70 366 -106
447 -265 595 -100 94 -214 136 -298 110z m-137 -645 c-13 -132 -10 -125 -51
-112 l-34 11 45 103 c25 57 46 102 47 101 2 -2 -2 -48 -7 -103z m-1339 -4466
c51 -22 139 -52 195 -67 l101 -27 32 -165 c40 -202 103 -572 139 -820 21 -139
28 -225 28 -345 1 -204 -1 -211 -59 -219 -24 -4 -92 -25 -149 -47 -58 -21
-110 -39 -116 -39 -6 0 -23 26 -38 58 -37 80 -42 223 -13 422 45 313 76 752
69 985 l-3 110 -67 -270 c-102 -413 -139 -618 -159 -898 -12 -172 -4 -292 24
-375 8 -23 11 -44 7 -47 -12 -8 -128 15 -185 36 -64 24 -158 92 -198 144 -47
60 -87 156 -94 227 -7 76 9 140 68 271 71 158 97 282 124 582 9 101 33 231 56
301 28 85 113 224 138 224 3 0 48 -18 100 -41z"/>
<path d="M4975 7484 c-27 -9 -51 -17 -52 -18 -2 -2 26 -61 61 -132 112 -226
245 -579 317 -843 12 -45 25 -81 29 -81 4 0 34 12 66 27 42 19 76 27 119 27
55 1 73 -5 198 -67 199 -98 369 -140 635 -156 96 -6 149 -14 171 -25 37 -20
87 -92 102 -150 39 -144 -111 -351 -342 -475 -67 -36 -304 -124 -594 -221
-108 -36 -110 -37 -108 -66 2 -23 1 -25 -6 -9 -14 33 -31 -147 -31 -326 0 -90
7 -238 15 -329 59 -668 85 -932 95 -960 7 -21 9 -17 9 23 1 66 29 197 48 226
14 22 15 60 11 295 -3 149 -4 267 -3 261 2 -5 11 -63 21 -128 l17 -119 119
-59 c66 -32 133 -68 149 -80 42 -30 83 -93 124 -195 47 -114 89 -179 123 -192
57 -21 67 -22 116 -12 28 6 181 55 340 110 204 69 296 106 314 123 14 14 32
53 43 92 16 57 28 78 77 129 106 111 196 255 190 303 -4 35 -74 90 -183 143
-109 53 -181 69 -374 85 -187 16 -248 31 -318 79 -134 92 -140 241 -14 359 62
58 103 78 280 139 165 56 222 88 286 161 113 129 223 465 195 592 -20 91 -33
104 -198 209 -56 35 -77 55 -93 90 -32 65 -21 108 45 172 77 75 115 85 331 93
201 8 242 19 302 81 49 50 66 104 61 197 -4 99 -32 156 -110 228 -71 66 -153
107 -283 142 -87 23 -120 26 -260 27 -136 0 -188 -5 -350 -32 -487 -83 -779
-91 -1003 -26 -121 35 -185 71 -297 169 -55 48 -118 96 -140 108 -53 27 -180
33 -250 11z m612 -2246 c-3 -7 -5 -2 -5 12 0 14 2 19 5 13 2 -7 2 -19 0 -25z
m10 -60 c-3 -7 -5 -2 -5 12 0 14 2 19 5 13 2 -7 2 -19 0 -25z m10 -50 c-3 -7
-5 -2 -5 12 0 14 2 19 5 13 2 -7 2 -19 0 -25z m10 -60 c-3 -7 -5 -2 -5 12 0
14 2 19 5 13 2 -7 2 -19 0 -25z m10 -60 c-3 -7 -5 -2 -5 12 0 14 2 19 5 13 2
-7 2 -19 0 -25z m10 -50 c-3 -7 -5 -2 -5 12 0 14 2 19 5 13 2 -7 2 -19 0 -25z
m10 -60 c-3 -7 -5 -2 -5 12 0 14 2 19 5 13 2 -7 2 -19 0 -25z m10 -60 c-3 -7
-5 -2 -5 12 0 14 2 19 5 13 2 -7 2 -19 0 -25z m10 -60 c-3 -7 -5 -2 -5 12 0
14 2 19 5 13 2 -7 2 -19 0 -25z m10 -65 c-3 -10 -5 -4 -5 12 0 17 2 24 5 18 2
-7 2 -21 0 -30z m10 -65 c-3 -7 -5 -2 -5 12 0 14 2 19 5 13 2 -7 2 -19 0 -25z
m10 -60 c-3 -7 -5 -2 -5 12 0 14 2 19 5 13 2 -7 2 -19 0 -25z m10 -65 c-3 -10
-5 -4 -5 12 0 17 2 24 5 18 2 -7 2 -21 0 -30z"/>
<path d="M4790 7459 c-18 -33 -2 -93 56 -202 174 -328 285 -587 387 -902 61
-190 157 -529 208 -737 18 -76 35 -135 37 -133 7 6 -28 249 -54 385 -68 347
-196 748 -418 1309 -43 106 -85 205 -93 220 -48 77 -101 103 -123 60z"/>
<path d="M2725 7300 c-101 -25 -246 -132 -308 -229 -53 -81 -59 -95 -109 -246
-87 -261 -128 -314 -364 -471 -78 -51 -164 -114 -192 -139 -145 -130 -186
-332 -90 -441 69 -79 143 -93 475 -94 259 0 342 -12 453 -66 91 -45 187 -138
245 -238 l40 -69 18 94 c44 226 133 606 183 786 97 348 238 750 320 915 13 26
24 49 24 51 0 2 -73 3 -162 3 -183 -1 -179 -2 -292 83 -88 67 -153 83 -241 61z"/>
<path d="M3338 5875 c-90 -334 -91 -364 -24 -586 64 -209 65 -210 66 -14 0 94
5 306 11 471 6 166 9 310 7 320 -2 11 -29 -75 -60 -191z"/>
<path d="M4986 5443 c-15 -47 -37 -235 -46 -396 -11 -198 -3 -448 30 -872 34
-442 40 -706 40 -1725 0 -881 6 -1173 25 -1230 9 -24 148 -99 205 -110 101
-19 227 20 351 109 77 55 84 85 83 331 -2 380 -53 750 -199 1450 -108 517
-141 698 -225 1205 -45 270 -99 580 -122 690 -35 177 -125 555 -133 563 -2 2
-6 -5 -9 -15z"/>
<path d="M4252 5095 c0 -16 2 -22 5 -12 2 9 2 23 0 30 -3 6 -5 -1 -5 -18z"/>
</g>
</svg>
